HIERARCHY
ROOT Hips
{
	OFFSET 0.0000 0.0000 0.0000
	CHANNELS 6 Xposition Yposition Zposition Zrotation Xrotation Yrotation
	JOINT Ab
	{
		OFFSET -0.0000 8.0846 -0.0000
		CHANNELS 3 Zrotation Xrotation Yrotation
		JOINT Chest
		{
			OFFSET -0.0000 25.0068 -0.0000
			CHANNELS 3 Zrotation Xrotation Yrotation
			JOINT Neck
			{
				OFFSET -0.0000 25.0068 0.0000
				CHANNELS 3 Zrotation Xrotation Yrotation
				JOINT Head
				{
					OFFSET -0.0000 10.7556 0.0000
					CHANNELS 3 Zrotation Xrotation Yrotation
					End Site
					{
						OFFSET -0.0000 16.6222 0.0000
					}
				}
			}
			JOINT LeftCollar
			{
				OFFSET -0.0000 25.0068 0.0000
				CHANNELS 3 Zrotation Xrotation Yrotation
				JOINT LeftShoulder
				{
					OFFSET 19.5556 -0.0000 0.0000
					CHANNELS 3 Zrotation Xrotation Yrotation
					JOINT LeftElbow
					{
						OFFSET 27.1828 0.0000 0.0000
						CHANNELS 3 Zrotation Xrotation Yrotation
						JOINT LeftWrist
						{
							OFFSET 23.3157 0.0000 0.0000
							CHANNELS 3 Zrotation Xrotation Yrotation
							End Site
							{
								OFFSET 0.0000 -14.6667 0.0000
							}
						}
					}
				}
			}
			JOINT RightCollar
			{
				OFFSET -0.0000 25.0068 0.0000
				CHANNELS 3 Zrotation Xrotation Yrotation
				JOINT RightShoulder
				{
					OFFSET -19.5556 0.0000 0.0000
					CHANNELS 3 Zrotation Xrotation Yrotation
					JOINT RightElbow
					{
						OFFSET -27.1828 0.0000 0.0000
						CHANNELS 3 Zrotation Xrotation Yrotation
						JOINT RightWrist
						{
							OFFSET -23.3157 0.0000 0.0000
							CHANNELS 3 Zrotation Xrotation Yrotation
							End Site
							{
								OFFSET -0.0000 -14.6667 0.0000
							}
						}
					}
				}
			}
		}
	}
	JOINT LeftHip
	{
		OFFSET 11.7333 0.0000 0.0000
		CHANNELS 3 Zrotation Xrotation Yrotation
		JOINT LeftKnee
		{
			OFFSET -0.0000 -40.8688 0.0000
			CHANNELS 3 Zrotation Xrotation Yrotation
			JOINT LeftAnkle
			{
				OFFSET -0.0000 -44.4337 0.0000
				CHANNELS 3 Zrotation Xrotation Yrotation
				End Site
				{
					OFFSET -0.0000 -4.8889 16.6222
				}
			}
		}
	}
	JOINT RightHip
	{
		OFFSET -11.7333 0.0000 0.0000
		CHANNELS 3 Zrotation Xrotation Yrotation
		JOINT RightKnee
		{
			OFFSET -0.0000 -40.8688 0.0000
			CHANNELS 3 Zrotation Xrotation Yrotation
			JOINT RightAnkle
			{
				OFFSET -0.0000 -44.4337 0.0000
				CHANNELS 3 Zrotation Xrotation Yrotation
				End Site
				{
					OFFSET -0.0000 -4.8889 16.6222
				}
			}
		}
	}
}
MOTION
Frames: 17
Frame Time: 0.010000
-1.2254 88.6867 188.7862 2.2717 359.4902 176.5703 1.9888 359.8134 358.3988 358.7478 10.3652 358.5095 0.9179 342.7919 1.5373 3.0723 7.1925 1.2048 338.5394 358.3669 8.6024 299.8942 29.1124 357.0862 17.0085 354.0896 321.9811 82.0796 0.2615 339.9863 22.8858 358.9883 354.9522 56.1280 46.5627 10.6768 337.8161 353.4956 32.3571 275.9343 352.2773 20.9664 2.4819 357.9352 357.4197 359.2924 11.0610 357.6724 356.5816 350.7900 22.0157 0.9281 351.8694 359.7050 358.6289 20.0875 8.2814 356.8332 344.2259 337.1920 
-1.2447 88.6872 188.7642 2.2661 359.4950 176.5439 1.9870 359.8728 358.4126 358.7395 10.3624 358.5244 0.8777 342.7680 1.5336 3.1053 7.2090 1.2055 338.5341 358.3498 8.6721 299.9084 29.1739 357.0698 17.0336 354.0933 322.0058 82.1910 0.2138 340.1187 22.8809 358.9911 354.9925 55.9800 46.6606 10.8295 337.7680 353.4401 32.4758 275.9834 352.1567 20.8360 2.4665 357.9383 357.5180 359.2959 11.1023 357.5681 355.6194 350.5674 21.8564 0.9087 351.8865 359.7379 358.6332 20.0849 8.2963 356.6547 344.2446 337.1448 
-1.2648 88.6885 188.7466 2.2574 359.4766 176.5266 1.9818 359.9090 358.4204 358.7275 10.3645 358.5346 0.8624 342.7361 1.5121 3.0868 7.2352 1.1854 338.5300 358.3617 8.6991 299.9391 29.2005 357.0613 17.0108 354.1139 322.0292 82.2821 0.1323 340.1965 22.8842 358.9910 354.9856 55.7574 46.8367 11.0782 337.7590 353.4207 32.6255 275.8866 352.2867 20.9040 2.4534 357.8893 357.4537 359.2636 11.1925 357.6174 356.5601 350.6713 22.0571 0.8829 351.8797 359.7721 358.6474 20.0826 8.3029 356.6582 344.2313 337.1295 
-1.2832 88.6910 188.7263 2.2560 359.4628 176.5128 1.9713 359.9439 358.4398 358.7307 10.3911 358.5544 0.8144 342.6665 1.4844 3.1183 7.2848 1.1593 338.5293 358.3470 8.7104 299.9600 29.2084 357.0641 17.0685 354.0664 321.9600 82.0193 0.2061 340.1036 22.8711 358.9747 354.9726 55.5807 46.9819 11.3042 337.6820 353.3640 32.7585 275.8992 352.3066 20.8570 2.4455 357.8730 357.4461 359.2480 11.2298 357.5990 355.9956 350.5208 21.9788 0.8697 351.8880 359.8021 358.6577 20.0607 8.2605 356.6749 344.2228 337.1552 
-1.3035 88.6921 188.7032 2.2539 359.4484 176.5013 1.9198 359.9496 358.4520 358.8388 10.4870 358.5579 0.6515 342.5475 1.4360 3.1961 7.3476 1.1311 338.5266 358.3424 8.7053 299.9228 29.1608 357.0473 17.0405 354.0868 321.9424 81.9855 0.1685 340.0586 22.7799 358.9839 354.9435 55.3535 47.1152 11.6218 337.6548 353.3238 32.8788 275.9110 352.2511 20.8447 2.4356 357.8629 357.4293 359.2294 11.2566 357.5998 356.4849 350.5671 22.0958 0.8527 351.9005 359.8257 358.6697 20.0357 8.2210 356.6803 344.2031 337.1760 
-1.3266 88.6933 188.6793 2.2512 359.4311 176.4940 1.8861 359.9450 358.3998 358.9511 10.5278 358.4962 0.4283 342.6134 1.4217 3.3310 7.2676 1.1471 338.4687 358.3482 8.6885 299.8844 29.0107 357.0896 16.9900 354.1342 321.9404 81.9662 0.1338 340.0015 22.7224 359.0118 355.0126 55.0874 47.2538 11.8936 337.6594 353.3171 32.9576 275.8240 352.2377 20.7908 2.4236 357.8547 357.4268 359.2150 11.2715 357.5885 356.1556 350.4767 22.0505 0.8292 351.9120 359.8609 358.6836 20.0119 8.2319 356.6911 344.1955 337.1558 
-1.3504 88.6954 188.6585 2.2485 359.3964 176.4888 1.8586 359.9875 358.4332 358.9691 10.5076 358.5291 0.4395 342.5786 1.4369 3.2922 7.2927 1.1612 338.4572 358.3260 8.7294 299.8965 29.0147 357.1029 17.0317 354.0989 321.9027 81.8500 0.1659 339.9777 22.7058 359.0111 355.0343 54.9204 47.4262 12.1109 337.5532 353.2541 33.0575 275.7373 352.1060 20.8296 2.4116 357.8220 357.4249 359.2029 11.2987 357.5838 356.4183 350.4939 22.1085 0.8072 351.9045 359.9003 358.7058 19.9879 8.1977 356.6876 344.1847 337.1465 
-1.3750 88.6972 188.6327 2.2454 359.3666 176.4736 1.7977 0.0694 358.4989 359.0297 10.4229 358.5890 0.4507 342.5917 1.3879 3.2374 7.2871 1.1101 338.4325 358.3364 8.6780 299.8902 28.9171 357.1806 16.9080 354.1435 321.9020 81.9423 0.1247 339.8540 22.6835 358.9923 354.9638 54.7939 47.6394 12.3069 337.4053 353.1842 33.0543 275.6423 351.7285 20.9167 2.4027 357.8030 357.4024 359.1770 11.3188 357.5838 356.0751 350.3908 22.0769 0.7848 351.9031 359.9322 358.7186 19.9652 8.1875 356.6810 344.1648 337.1510 
-1.4020 88.6984 188.6034 2.2456 359.3336 176.4660 1.7891 0.0898 358.5141 359.0405 10.4490 358.6038 0.4197 342.5560 1.3537 3.2605 7.2760 1.0815 338.4423 358.3386 8.6578 299.8791 28.9802 357.1692 16.9371 354.1166 321.9392 82.0240 0.0621 339.9219 22.6782 358.9784 354.8869 54.5303 47.7658 12.6174 337.3429 353.1580 33.1885 275.7841 351.5715 20.9059 2.3952 357.7781 357.3628 359.1500 11.3440 357.5845 356.2558 350.3773 22.1499 0.7652 351.9065 359.9650 358.7304 19.9365 8.1935 356.7359 344.1280 337.1427 
-1.4323 88.6997 188.5777 2.2366 359.2719 176.4854 1.7703 0.0822 358.5156 359.0689 10.4871 358.6029 0.3710 342.4975 1.3380 3.2771 7.2820 1.0728 338.4486 358.3407 8.6705 299.8687 29.0342 357.1369 16.9741 354.1015 321.9734 81.9868 0.0243 339.9409 22.6537 358.9640 354.8458 54.2851 47.8431 12.8940 337.2935 353.1062 33.4254 275.8681 351.6269 20.9609 2.3750 357.7045 357.3026 359.1278 11.3959 357.5867 356.4949 350.3747 22.2254 0.7304 351.8806 359.9739 358.7485 19.9139 8.2702 356.7468 344.0963 337.0477 
-1.4648 88.7023 188.5469 2.2265 359.2275 176.4705 1.7626 0.1186 358.5229 359.0585 10.4542 358.6115 0.3554 342.4931 1.3462 3.2792 7.3000 1.0826 338.4485 358.3339 8.7055 299.8562 29.0247 357.1456 16.9992 354.0994 321.9998 81.9199 0.0029 339.9204 22.6587 358.9688 354.8623 54.1124 47.9540 13.0919 337.2345 353.0487 33.5749 275.8909 351.5911 20.9388 2.3508 357.6719 357.2835 359.1101 11.4264 357.5746 356.1766 350.2599 22.1992 0.6949 351.8659 0.0248 358.7712 19.8891 8.1851 356.7877 344.0557 337.1067 
-1.5016 88.7049 188.5158 2.2127 359.1709 176.4610 1.7422 0.1328 358.5305 359.0553 10.4435 358.6193 0.3629 342.4491 1.3514 3.2372 7.3699 1.0862 338.4521 358.3489 8.6903 299.8320 28.8685 357.1842 16.9236 354.1286 321.9700 81.8435 0.0254 339.7861 22.6565 358.9718 354.8878 53.9583 48.0656 13.2834 337.1554 352.9910 33.7433 275.7434 351.6695 20.9242 2.3187 357.6171 357.2631 359.0948 11.4665 357.5660 356.4623 350.2469 22.2781 0.6527 351.8434 0.0708 358.7938 19.8516 8.0576 356.8511 344.0189 337.2097 
-1.5426 88.7070 188.4856 2.1963 359.1061 176.4562 1.7207 0.1490 358.5352 359.0650 10.4269 358.6237 0.3142 342.4041 1.3441 3.2567 7.4228 1.0822 338.4528 358.3638 8.6677 299.7931 28.6905 357.2309 16.8453 354.1610 321.9144 81.8172 0.0289 339.6756 22.6531 358.9658 354.8785 53.7142 48.1826 13.5517 337.1103 352.9412 33.9266 275.6315 351.7717 20.8686 2.2818 357.5416 357.2081 359.0726 11.5266 357.5790 356.1697 350.1158 22.2636 0.6024 351.8086 0.0991 358.8154 19.8324 8.0305 356.9540 343.9678 337.2492 
-1.5910 88.7081 188.4467 2.1804 359.0656 176.4479 1.7018 0.1872 358.5522 359.0635 10.4124 358.6413 0.2954 342.3537 1.3323 3.2378 7.4768 1.0695 338.4516 358.3428 8.6850 299.7785 28.7218 357.2509 16.9002 354.1373 321.9186 81.7409 359.9934 339.7036 22.6525 358.9772 354.8524 53.4418 48.2886 13.8553 337.0908 352.9033 34.0867 275.6002 351.8413 20.8166 2.2317 357.5028 357.1659 359.0697 11.5762 357.5768 356.6256 350.1153 22.3853 0.5377 351.8048 0.1296 358.8548 19.8086 7.9993 357.0062 343.9133 337.2648 
-1.6455 88.7085 188.4115 2.1581 358.9981 176.4440 1.6925 0.2155 358.5644 359.0364 10.3667 358.6560 0.3020 342.3160 1.3198 3.2025 7.5491 1.0515 338.4511 358.3469 8.7027 299.7810 28.7992 357.2749 16.9292 354.1340 321.9875 81.7072 359.9223 339.7785 22.6615 358.9532 354.7952 53.1331 48.5018 14.2278 336.9671 352.8367 34.1541 275.6506 351.8600 20.6925 2.1781 357.4250 357.1028 359.0495 11.6423 357.5664 356.1782 349.9538 22.3626 0.4616 351.7631 0.1339 358.8895 19.8023 7.9921 356.9849 343.8487 337.2555 
-1.6994 88.7100 188.3706 2.1376 358.9363 176.4416 1.6646 0.2282 358.5792 359.0387 10.3634 358.6700 0.3190 342.2578 1.3190 3.1601 7.6199 1.0519 338.4448 358.3310 8.7010 299.7611 28.7949 357.3104 16.9547 354.1283 321.9923 81.7374 359.8662 339.8415 22.6538 358.9606 354.7719 52.8974 48.6432 14.5402 336.8816 352.7821 34.2260 275.7088 351.8092 20.6278 2.1281 357.3560 357.0355 359.0261 11.7121 357.5599 356.8514 350.0048 22.5443 0.3896 351.7415 0.1559 358.9186 19.7761 8.0087 357.0761 343.7726 337.2440 
-1.7488 88.7136 188.3245 2.1353 358.8759 176.4465 1.6435 0.2537 358.5923 359.0412 10.3406 358.6837 0.3944 342.2141 1.3111 3.0584 7.6665 1.0646 338.4426 358.3285 8.6885 299.7427 28.7532 357.3671 16.9304 354.1316 321.9816 81.7216 359.8522 339.8468 22.6482 358.9663 354.7873 52.8202 48.7603 14.6949 336.6575 352.6830 34.3148 275.9331 351.5952 20.5301 2.1028 357.2905 356.9893 358.9989 11.7835 357.5526 356.2412 349.8036 22.4517 0.3443 351.7275 0.1960 358.9478 19.7533 8.0230 357.2579 343.6633 337.2431 
